solid Exported from Blender-3.3.7
facet normal 0.000000 0.000000 1.000000
outer loop
vertex 2.200000 0.400000 2.200000
vertex 1.800000 0.400000 2.200000
vertex 1.800000 0.000000 2.200000
endloop
endfacet
facet normal 0.000000 0.000000 1.000000
outer loop
vertex 2.200000 0.400000 2.200000
vertex 1.800000 0.000000 2.200000
vertex 2.200000 0.000000 2.200000
endloop
endfacet
facet normal 0.000000 -1.000000 0.000000
outer loop
vertex 2.200000 0.000000 1.800000
vertex 2.200000 0.000000 2.200000
vertex 1.800000 0.000000 2.200000
endloop
endfacet
facet normal 0.000000 -1.000000 0.000000
outer loop
vertex 2.200000 0.000000 1.800000
vertex 1.800000 0.000000 2.200000
vertex 1.800000 0.000000 1.800000
endloop
endfacet
facet normal -1.000000 0.000000 0.000000
outer loop
vertex 1.800000 0.000000 1.800000
vertex 1.800000 0.000000 2.200000
vertex 1.800000 0.400000 2.200000
endloop
endfacet
facet normal -1.000000 0.000000 0.000000
outer loop
vertex 1.800000 0.000000 1.800000
vertex 1.800000 0.400000 2.200000
vertex 1.800000 0.400000 1.800000
endloop
endfacet
facet normal 0.000000 0.000000 -1.000000
outer loop
vertex 1.800000 0.400000 1.800000
vertex 2.200000 0.400000 1.800000
vertex 2.200000 0.000000 1.800000
endloop
endfacet
facet normal 0.000000 0.000000 -1.000000
outer loop
vertex 1.800000 0.400000 1.800000
vertex 2.200000 0.000000 1.800000
vertex 1.800000 0.000000 1.800000
endloop
endfacet
facet normal 1.000000 0.000000 0.000000
outer loop
vertex 2.200000 0.400000 1.800000
vertex 2.200000 0.400000 2.200000
vertex 2.200000 0.000000 2.200000
endloop
endfacet
facet normal 1.000000 0.000000 0.000000
outer loop
vertex 2.200000 0.400000 1.800000
vertex 2.200000 0.000000 2.200000
vertex 2.200000 0.000000 1.800000
endloop
endfacet
facet normal 0.000000 1.000000 0.000000
outer loop
vertex 1.800000 0.400000 1.800000
vertex 1.800000 0.400000 2.200000
vertex 2.200000 0.400000 2.200000
endloop
endfacet
facet normal 0.000000 1.000000 0.000000
outer loop
vertex 1.800000 0.400000 1.800000
vertex 2.200000 0.400000 2.200000
vertex 2.200000 0.400000 1.800000
endloop
endfacet
endsolid Exported from Blender-3.3.7
